<?xml version="1.0" encoding="utf-8"?>
<!-- Generator: Adobe Illustrator 27.1.0, SVG Export Plug-In . SVG Version: 6.00 Build 0)  -->
<svg version="1.1" xmlns="http://www.w3.org/2000/svg" xmlns:xlink="http://www.w3.org/1999/xlink" x="0px" y="0px"
	 viewBox="0 0 604.44 599.87" style="enable-background:new 0 0 604.44 599.87;" xml:space="preserve">
<style type="text/css">
	.st0{fill:#1F9C8D;}
</style>
<g id="Capa_1">
</g>
<g id="Capa_3">
</g>
<g id="Capa_2">
	<g>
		<path class="st0" d="M174.92,63.63C92.63,109.36,36.82,198.03,36.82,299.93s55.81,190.57,138.11,236.29V63.63z"/>
		<path class="st0" d="M312.38,30.91c1.64,9.99,5.36,22.68,14.55,31.25c9.87,9.2,20.69,9.78,38.81,15.52
			c2.44,0.77,30.18,8.05,49.03,23.07c30.23,24.07,42.06,58.07,44.26,66.45c3.45,13.17,9.78,46.36-7.04,81.88
			c-13.15,27.78-33.76,42.88-43.19,48.96c9.42,6.07,30.04,21.18,43.19,48.96c16.82,35.53,10.49,68.71,7.04,81.88
			c-2.19,8.38-14.03,42.38-44.26,66.45c-18.86,15.02-46.6,22.3-49.03,23.07c-18.11,5.74-28.94,6.32-38.81,15.52
			c-10.41,9.7-13.8,24.7-15.1,35.06c142.13-5.13,255.8-123.61,255.8-269.04C567.63,154.68,454.25,36.32,312.38,30.91z"/>
		<path class="st0" d="M398.42,328.86c-33.19-24.41-59.09-26.05-74.18-30.83l1.91,0l-1.91,0c15.09-4.78,40.99-6.42,74.18-30.83
			c10.45-7.69,29.68-27.57,33.44-58.64c0.43-3.51,3.95-36.76-17.6-63.43c-3.94-4.88-19.57-30.41-71.41-41.03
			c-22.13-4.53-37.94-17.84-46.52-28.19c-11.62-14.02-15.54-30.71-16.69-44.24c-25.36,2.17-49.71,7.95-72.54,16.85v502.81
			c22.75,8.87,47.01,14.64,72.28,16.83c0.73-14.1,4.23-32.65,16.95-48.01c8.58-10.35,24.39-23.66,46.52-28.19
			c51.85-10.62,67.47-36.15,71.41-41.03c21.55-26.67,18.03-59.91,17.6-63.43C428.1,356.43,408.87,336.55,398.42,328.86z
			 M247.94,125.41c109.81,0,126.08,41.93,126.13,71.95c0-0.04,0-0.08,0-0.12v0.24c0-0.04,0-0.08,0-0.12
			c-0.04,30.02-16.32,71.95-126.13,71.95V125.41z M380.71,398.48c0-0.04,0-0.08,0-0.12c-0.05,30.02-17.17,71.95-132.76,71.95V326.41
			c115.59,0,132.72,41.93,132.76,71.95c0-0.04,0-0.08,0-0.12V398.48z"/>
	</g>
</g>
</svg>
